<svg width="65" height="56" viewBox="0 0 65 56" fill="none" xmlns="http://www.w3.org/2000/svg">
<mask id="path-1-inside-1" fill="white">
<path d="M23.1959 24.2119H17.2425C16.4238 24.2119 15.7541 24.8817 15.7541 25.7003V31.6538C15.7541 32.4724 16.4238 33.1421 17.2425 33.1421H23.1959C24.0145 33.1421 24.6843 32.4724 24.6843 31.6538V25.7003C24.6843 24.8817 24.0145 24.2119 23.1959 24.2119ZM21.7076 30.1654H18.7308V27.1886H21.7076V30.1654ZM63.382 25.7003H57.4285V19.7468C57.4285 18.9282 56.7587 18.2584 55.9401 18.2584H49.9866V13.7933C49.9866 12.9747 49.3169 12.3049 48.4983 12.3049H44.0332V9.32818H48.4983C49.3169 9.32818 49.9866 8.65841 49.9866 7.83981V1.88632C49.9866 1.06772 49.3169 0.397949 48.4983 0.397949H42.5448C41.7262 0.397949 41.0564 1.06772 41.0564 1.88632V6.35144H36.5913C35.7727 6.35144 35.1029 7.0212 35.1029 7.83981V12.3049H30.6378V7.83981C30.6378 7.0212 29.968 6.35144 29.1494 6.35144H24.6843V1.88632C24.6843 1.06772 24.0145 0.397949 23.1959 0.397949H17.2425C16.4238 0.397949 15.7541 1.06772 15.7541 1.88632V7.83981C15.7541 8.65841 16.4238 9.32818 17.2425 9.32818H21.7076V12.3049H17.2425C16.4238 12.3049 15.7541 12.9747 15.7541 13.7933V18.2584H9.80059C8.98199 18.2584 8.31222 18.9282 8.31222 19.7468V25.7003H2.35873C1.54013 25.7003 0.870361 26.37 0.870361 27.1886V48.0259C0.870361 48.8445 1.54013 49.5142 2.35873 49.5142H8.31222C9.13083 49.5142 9.80059 48.8445 9.80059 48.0259V39.0956H14.2657V48.0259C14.2657 48.8445 14.9355 49.5142 15.7541 49.5142H20.2192V53.9793C20.2192 54.7979 20.889 55.4677 21.7076 55.4677H27.6611C28.4797 55.4677 29.1494 54.7979 29.1494 53.9793V48.0259C29.1494 47.2073 28.4797 46.5375 27.6611 46.5375H23.1959V43.5607H42.5448V46.5375H38.0797C37.2611 46.5375 36.5913 47.2073 36.5913 48.0259V53.9793C36.5913 54.7979 37.2611 55.4677 38.0797 55.4677H44.0332C44.8518 55.4677 45.5215 54.7979 45.5215 53.9793V49.5142H49.9866C50.8052 49.5142 51.475 48.8445 51.475 48.0259V39.0956H55.9401V48.0259C55.9401 48.8445 56.6099 49.5142 57.4285 49.5142H63.382C64.2006 49.5142 64.8704 48.8445 64.8704 48.0259V27.1886C64.8704 26.37 64.2006 25.7003 63.382 25.7003ZM44.0332 3.37469H47.0099V6.35144H44.0332V3.37469ZM18.7308 3.37469H21.7076V6.35144H18.7308V3.37469ZM26.1727 52.491H23.1959V49.5142H26.1727V52.491ZM42.5448 52.491H39.568V49.5142H42.5448V52.491ZM58.9169 46.5375V37.6073C58.9169 36.7886 58.2471 36.1189 57.4285 36.1189H49.9866C49.168 36.1189 48.4983 36.7886 48.4983 37.6073V46.5375H45.5215V42.0724C45.5215 41.2538 44.8518 40.584 44.0332 40.584H21.7076C20.889 40.584 20.2192 41.2538 20.2192 42.0724V46.5375H17.2425V37.6073C17.2425 36.7886 16.5727 36.1189 15.7541 36.1189H8.31222C7.49362 36.1189 6.82385 36.7886 6.82385 37.6073V46.5375H3.84711V28.677H9.80059C10.6192 28.677 11.289 28.0073 11.289 27.1886V21.2352H17.2425C18.0611 21.2352 18.7308 20.5654 18.7308 19.7468V15.2817H23.1959C24.0145 15.2817 24.6843 14.6119 24.6843 13.7933V9.32818H27.6611V13.7933C27.6611 14.6119 28.3308 15.2817 29.1494 15.2817H36.5913C37.4099 15.2817 38.0797 14.6119 38.0797 13.7933V9.32818H41.0564V13.7933C41.0564 14.6119 41.7262 15.2817 42.5448 15.2817H47.0099V19.7468C47.0099 20.5654 47.6797 21.2352 48.4983 21.2352H54.4518V27.1886C54.4518 28.0073 55.1215 28.677 55.9401 28.677H61.8936V46.5375H58.9169ZM48.4983 24.2119H42.5448C41.7262 24.2119 41.0564 24.8817 41.0564 25.7003V31.6538C41.0564 32.4724 41.7262 33.1421 42.5448 33.1421H48.4983C49.3169 33.1421 49.9866 32.4724 49.9866 31.6538V25.7003C49.9866 24.8817 49.3169 24.2119 48.4983 24.2119ZM47.0099 30.1654H44.0332V27.1886H47.0099V30.1654Z"/>
</mask>
<path d="M23.1959 24.2119H17.2425C16.4238 24.2119 15.7541 24.8817 15.7541 25.7003V31.6538C15.7541 32.4724 16.4238 33.1421 17.2425 33.1421H23.1959C24.0145 33.1421 24.6843 32.4724 24.6843 31.6538V25.7003C24.6843 24.8817 24.0145 24.2119 23.1959 24.2119ZM21.7076 30.1654H18.7308V27.1886H21.7076V30.1654ZM63.382 25.7003H57.4285V19.7468C57.4285 18.9282 56.7587 18.2584 55.9401 18.2584H49.9866V13.7933C49.9866 12.9747 49.3169 12.3049 48.4983 12.3049H44.0332V9.32818H48.4983C49.3169 9.32818 49.9866 8.65841 49.9866 7.83981V1.88632C49.9866 1.06772 49.3169 0.397949 48.4983 0.397949H42.5448C41.7262 0.397949 41.0564 1.06772 41.0564 1.88632V6.35144H36.5913C35.7727 6.35144 35.1029 7.0212 35.1029 7.83981V12.3049H30.6378V7.83981C30.6378 7.0212 29.968 6.35144 29.1494 6.35144H24.6843V1.88632C24.6843 1.06772 24.0145 0.397949 23.1959 0.397949H17.2425C16.4238 0.397949 15.7541 1.06772 15.7541 1.88632V7.83981C15.7541 8.65841 16.4238 9.32818 17.2425 9.32818H21.7076V12.3049H17.2425C16.4238 12.3049 15.7541 12.9747 15.7541 13.7933V18.2584H9.80059C8.98199 18.2584 8.31222 18.9282 8.31222 19.7468V25.7003H2.35873C1.54013 25.7003 0.870361 26.37 0.870361 27.1886V48.0259C0.870361 48.8445 1.54013 49.5142 2.35873 49.5142H8.31222C9.13083 49.5142 9.80059 48.8445 9.80059 48.0259V39.0956H14.2657V48.0259C14.2657 48.8445 14.9355 49.5142 15.7541 49.5142H20.2192V53.9793C20.2192 54.7979 20.889 55.4677 21.7076 55.4677H27.6611C28.4797 55.4677 29.1494 54.7979 29.1494 53.9793V48.0259C29.1494 47.2073 28.4797 46.5375 27.6611 46.5375H23.1959V43.5607H42.5448V46.5375H38.0797C37.2611 46.5375 36.5913 47.2073 36.5913 48.0259V53.9793C36.5913 54.7979 37.2611 55.4677 38.0797 55.4677H44.0332C44.8518 55.4677 45.5215 54.7979 45.5215 53.9793V49.5142H49.9866C50.8052 49.5142 51.475 48.8445 51.475 48.0259V39.0956H55.9401V48.0259C55.9401 48.8445 56.6099 49.5142 57.4285 49.5142H63.382C64.2006 49.5142 64.8704 48.8445 64.8704 48.0259V27.1886C64.8704 26.37 64.2006 25.7003 63.382 25.7003ZM44.0332 3.37469H47.0099V6.35144H44.0332V3.37469ZM18.7308 3.37469H21.7076V6.35144H18.7308V3.37469ZM26.1727 52.491H23.1959V49.5142H26.1727V52.491ZM42.5448 52.491H39.568V49.5142H42.5448V52.491ZM58.9169 46.5375V37.6073C58.9169 36.7886 58.2471 36.1189 57.4285 36.1189H49.9866C49.168 36.1189 48.4983 36.7886 48.4983 37.6073V46.5375H45.5215V42.0724C45.5215 41.2538 44.8518 40.584 44.0332 40.584H21.7076C20.889 40.584 20.2192 41.2538 20.2192 42.0724V46.5375H17.2425V37.6073C17.2425 36.7886 16.5727 36.1189 15.7541 36.1189H8.31222C7.49362 36.1189 6.82385 36.7886 6.82385 37.6073V46.5375H3.84711V28.677H9.80059C10.6192 28.677 11.289 28.0073 11.289 27.1886V21.2352H17.2425C18.0611 21.2352 18.7308 20.5654 18.7308 19.7468V15.2817H23.1959C24.0145 15.2817 24.6843 14.6119 24.6843 13.7933V9.32818H27.6611V13.7933C27.6611 14.6119 28.3308 15.2817 29.1494 15.2817H36.5913C37.4099 15.2817 38.0797 14.6119 38.0797 13.7933V9.32818H41.0564V13.7933C41.0564 14.6119 41.7262 15.2817 42.5448 15.2817H47.0099V19.7468C47.0099 20.5654 47.6797 21.2352 48.4983 21.2352H54.4518V27.1886C54.4518 28.0073 55.1215 28.677 55.9401 28.677H61.8936V46.5375H58.9169ZM48.4983 24.2119H42.5448C41.7262 24.2119 41.0564 24.8817 41.0564 25.7003V31.6538C41.0564 32.4724 41.7262 33.1421 42.5448 33.1421H48.4983C49.3169 33.1421 49.9866 32.4724 49.9866 31.6538V25.7003C49.9866 24.8817 49.3169 24.2119 48.4983 24.2119ZM47.0099 30.1654H44.0332V27.1886H47.0099V30.1654Z" stroke="url(#paint0_linear)" stroke-width="8" mask="url(#path-1-inside-1)"/>
<defs>
<linearGradient id="paint0_linear" x1="0.870361" y1="0.397949" x2="64.8704" y2="55.4677" gradientUnits="userSpaceOnUse">
<stop stop-color="#00FDFD"/>
<stop offset="1" stop-color="#0044F2"/>
</linearGradient>
</defs>
</svg>
